<svg width="1036" height="728" viewBox="0 0 1036 728" fill="none" xmlns="http://www.w3.org/2000/svg">
<g clip-path="url(#clip0_2_2)">
<path opacity="0.7" d="M933.5 678C953.106 678 969 662.106 969 642.5C969 622.894 953.106 607 933.5 607C913.894 607 898 622.894 898 642.5C898 662.106 913.894 678 933.5 678Z" stroke="#00ADB5" stroke-opacity="0.8" stroke-width="18"/>
<path opacity="0.7" d="M1019 601.5C1025.9 601.5 1031.5 595.904 1031.5 589C1031.5 582.096 1025.9 576.5 1019 576.5C1012.1 576.5 1006.5 582.096 1006.5 589C1006.5 595.904 1012.1 601.5 1019 601.5Z" stroke="#00ADB5" stroke-opacity="0.2" stroke-width="9"/>
<path d="M331.138 17.2759L21.8907 326.523C1.19287 347.221 1.19287 380.779 21.8907 401.477L331.138 710.724C351.836 731.422 385.394 731.422 406.091 710.724L715.339 401.477C736.037 380.779 736.037 347.221 715.339 326.523L406.091 17.2759C385.394 -3.42192 351.836 -3.42194 331.138 17.2759Z" stroke="#C7FDFF" stroke-width="2"/>
<path d="M431.138 16.8908L121.891 326.138C101.193 346.836 101.193 380.394 121.891 401.092L431.138 710.339C451.836 731.037 485.394 731.037 506.091 710.339L815.339 401.092C836.037 380.394 836.037 346.836 815.339 326.138L506.091 16.8908C485.394 -3.80697 451.836 -3.80695 431.138 16.8908Z" stroke="#C7FDFF" stroke-opacity="0.8" stroke-width="2"/>
</g>
<defs>
<clipPath id="clip0_2_2">
<rect width="1036" height="728" fill="white"/>
</clipPath>
</defs>
</svg>
